<svg xmlns="http://www.w3.org/2000/svg" viewBox="0 0 290.53 290.53"><defs><style>.cls-1{fill:#0a0905;}.cls-2{fill:#fff;}</style></defs><title>Asset 1</title><g id="Layer_2" data-name="Layer 2"><g id="Lag_1" data-name="Lag 1"><rect class="cls-1" width="290.53" height="290.53"/><path class="cls-2" d="M254.69,207.49c-.22.89-1,1.29-1.66,1.7-4.76,2.87-10,4.67-15.15,6.69a1.79,1.79,0,0,1-1.12,0c-.91-.35-1.53-.81-2,.77-.39,1.41-3.42,1.11-4.16-.36-1.18-2.32-2.26-4.68-3.43-7a4.74,4.74,0,0,0-2.77-2.56c-.82-.28-1-1.53-1.09-2.47-.07-.66-.18-1.32.71-1.76,2.77-1.36,5.48-2.84,8.23-4.25,1.84-.94,2.31-.81,3.44,1a32.43,32.43,0,0,1,2.35,5.16,26.3,26.3,0,0,0,1.34,2.78c.33.6.72,1.35,1.59,1.1a2,2,0,0,0,1.59-1.67,12.6,12.6,0,0,0,.11-1.62c0-3.43,0-6.86,0-10.29,0-2.15-.6-2.58-2.58-1.8-2.72,1.07-5.39,2.27-8.11,3.36s-4.25.55-5.68-2a23.66,23.66,0,0,1-2.71-13.49,42.48,42.48,0,0,0-.08-6.28,3.13,3.13,0,0,1,1.46-3.15c4.08-2.75,8.64-4.5,13.12-6.43.94-.41,1.49.4,2.38.69-.09-2.51,2-2.43,3.53-2.81,1.27-.32,1.91.54,2.46,1.44,1,1.63,2,3.27,2.9,4.95a4.91,4.91,0,0,0,2.73,2.6c1,.36,1,1.55,1.13,2.47.12.71.17,1.4-.79,1.85-2.79,1.33-5.49,2.83-8.25,4.23-1.63.84-2.34.61-3.32-1a54.42,54.42,0,0,1-2.28-5.19c-.4-.83-.63-2.2-1.82-2s-1,1.6-1,2.6c0,3.64,0,7.29,0,10.93,0,1.58.26,1.75,1.73,1.13,2.94-1.24,5.85-2.57,8.82-3.75,2.74-1.1,4.22-.56,5.73,2a21.53,21.53,0,0,1,2.61,7.81Z"/><path class="cls-2" d="M201,118.32c0-4.68,0-9.36,0-14a13.45,13.45,0,0,0-.3-2.43c-.64-3.68-3.16-3.81-5.85-3.12-.86.22-.55,1-.55,1.51q0,10,0,20.08c0,2.45,0,4.9,0,7.35,0,1.91.49,3.32,2.49,4.08,1,.39,1,1.69,1.19,2.68s0,2-2.15,2.54a12.2,12.2,0,0,0-5.48,3.09c-1.28,1.21-2,1.33-2.94.77-3.31-2-5.37-4.67-5.31-8.69,0-1.31,0-2.61,0-3.92a2,2,0,0,1,.23-1.41,2.84,2.84,0,0,0,.3-3.64,6,6,0,0,1-.54-3.31c0-6,0-12.08-.07-18.12,0-2.26-.83-4-3.32-4.81-.88-.26-1-1.58-1-2.51s-.35-1.64,1.13-2.13a19.45,19.45,0,0,0,4.27-1.9c3.39-2.13,4-3.57,5.75-3a7,7,0,0,1,4.52,4c.5,1.25.93.89,1.69.45,2.5-1.43,5-2.83,7.62-4a4.46,4.46,0,0,1,4.48.3c.14.08.37.14.4.26.66,2.46,3.53,3.17,4.28,5.66s1.59,4.68,1.57,7.25c-.06,8.6,0,17.21,0,25.81,0,2.48.61,3.53,2.95,4.2,1.52.43,1,1.7,1.33,2.56a1.85,1.85,0,0,1-1.36,2.61,26,26,0,0,0-7.15,4c-1.12.85-1.94.92-2.91.31-3.22-2-5.12-4.75-5.08-8.69.06-4.57,0-9.15,0-13.72h-.51"/><path class="cls-2" d="M58,127.13c2.45.11,4.12.48,5.63,2,1.72,1.71,4.27,1.69,6.59,1.92,1,.1,2.07,0,3.09.13.62.08,1.52-.49,1.84.47a8,8,0,0,1,.36,4.26c0,.13-.34.22-.54.3l-11.72,4.38a7.75,7.75,0,0,1-8-1.67,20.21,20.21,0,0,1-7.73-15.84c-.07-9.85,0-19.69,0-29.54,0-.65-.31-1.45.56-1.87.19-.09.29-.18.17-.46-1.38-3.16-.61-6.5-.7-9.75-.13-4.52,0-4.54,4.16-6.21C57.08,73.07,62.54,71,68.16,69.3c2.29-.67,2.58-.55,3.31,1.72.38,1.21,1.65,2.61-.48,3.77,1.67.25,1.88,1.55,2.26,2.67.55,1.64,1,3.29,1.55,4.94a3.41,3.41,0,0,0,3.46,2.67c1.66,0,1.11,1.51,1.51,2.28a1.48,1.48,0,0,1-.68,2.17c-3.35,1.51-6.66,3.15-10,4.71-1.8.84-2.4.61-3.28-1.23a51.64,51.64,0,0,1-2.68-7.64,37.33,37.33,0,0,0-1.39-4c-.24-.57-.4-1.49-1.41-1.26s-.78,1-.78,1.72v37.21a12.37,12.37,0,0,0,.09,2.44c.4,2,.49,3.89-1.65,5.63"/><path class="cls-2" d="M112.33,167.88c2.2-1.45,4.24-2.88,6.36-4.18,2.43-1.5,4.29-1.32,6.3.72a16.9,16.9,0,0,1,5,11.32c0,.76,0,1.53,0,2.29a3.35,3.35,0,0,1-4.4,3.48c-1.32-.33-1.72,0-1.94,1.24-.15.87-2.61,2.95-3.3,2.72a3.2,3.2,0,0,1-2-1.9c-.82-2-.39-4.07-.72-6.08a3.69,3.69,0,0,0-4.25-3.1c-.71.11-.54.55-.55.93,0,1.85,0,3.7,0,5.55,0,7.35,0,14.69,0,22,0,2,.39,3.54,2.58,4.34.87.33,1.09,1.65,1.14,2.72a1.78,1.78,0,0,1-1,2c-2.59,1.37-5.13,2.84-7.67,4.3a1.59,1.59,0,0,1-1.78.14c-3.4-1.93-5.53-4.67-5.55-8.73s0-8.16,0-12.24c0-2.08,0-4.15,1-6,.6-1.07-.25-1.78-.54-2.49a8,8,0,0,1-.47-3c0-2.12,0-4.25,0-6.37,0-2.44-.73-4.42-3.47-5.2-.77-.22-.7-1.49-.87-2.27s-.44-1.64.54-2.17q4.65-2.5,9.29-5a1.34,1.34,0,0,1,1.22,0,7.72,7.72,0,0,1,5,4.95"/><path class="cls-2" d="M179,159.17c0,.58,0,.91,0,1.24,0,1.13-.33,2.52.21,3.32s2,.15,3.07.29c.32,0,.67-.19.85.43.53,1.77.09,3.45-.21,5.17-.17,1-.52,1.33-1.46,1.21-.43-.05-.87,0-1.3,0-.93-.12-1.21.24-1.19,1.17.06,2.66,0,5.33,0,8,0,7.56,0,15.12,0,22.68,0,2.1.31,3.83,2.69,4.6,1.35.43,1.43,4,.17,4.62-.86.44-1.59,1.47-2.79.88-.22-.1-.35,0-.48.25-1.07,2.12-3.45,2.38-5.15,3.61-.31.23-.63,0-.91-.12a9.55,9.55,0,0,1-5.63-8.3c0-2.06-.59-4.25.94-6.11.17-.21.06-.51-.09-.76a8.63,8.63,0,0,1-.89-4.69c0-8,0-16.1,0-24.15,0-1.2-.19-1.76-1.56-1.63a1.91,1.91,0,0,1-2.09-2.36c.16-1,.49-1.89.64-2.85.1-.6.39-.74.93-.91,5.17-1.59,8.36-5.22,10.12-10.18.31-.9.48-1.52,1.55-1.31.81.15,1.64-.43,2.13,1.14.55,1.75.05,3.4.4,4.79"/><path class="cls-2" d="M92.8,187v15.34c0,2.15.17,4.06,2.73,4.93,1.5.51,1.45,3.88.07,4.66-2.55,1.45-5.12,2.86-7.65,4.34a1.69,1.69,0,0,1-1.92,0c-3.36-1.93-5.86-4.74-5.21-8.63.48-2.93,0-5.61-.14-8.41s0-5.77,0-8.65c0-4.57,0-9.14,0-13.71,0-2.17-.34-3.92-2.73-4.77-1.4-.5-1.42-3.84-.12-4.59,2.58-1.48,5.2-2.91,7.77-4.43a1.59,1.59,0,0,1,1.78-.05c3.39,2,5.48,4.67,5.44,8.77,0,5.06,0,10.12,0,15.18"/><path class="cls-2" d="M162.11,116.4c0-5.23,0-10.45,0-15.67,0-2-.58-3.44-2.59-4.2-1.09-.41-.92-1.65-1-2.57-.09-.74-.28-1.55.73-2.09,2.68-1.42,5.31-2.94,7.93-4.47a1.45,1.45,0,0,1,1.64,0c3.33,1.9,5.48,4.55,5.46,8.58,0,2.07,0,4.14,0,6.2,0,1.25.14,2.51-1,3.41-.43.34-.34.69,0,1.1a5.47,5.47,0,0,1,1,3.64q0,8.33,0,16.64c0,2,.3,3.8,2.66,4.67.84.31,1.11,1.7,1.17,2.82a1.77,1.77,0,0,1-1.1,1.91c-2.54,1.34-5,2.78-7.51,4.24a1.82,1.82,0,0,1-2.08,0c-3.33-2-5.3-4.71-5.29-8.7,0-5.17,0-10.34,0-15.5"/><path class="cls-2" d="M84.47,145.47c.43-1,.47-2,1.65-2.38a2.71,2.71,0,0,1,3.6,1.16A10.63,10.63,0,0,1,91.6,150c0,1.36-.12,2.73,0,4.07a2.65,2.65,0,0,1-2.09,3.25c-1.7.53-3.38,1.16-5,1.83a2.48,2.48,0,0,1-3.34-1.1,10.84,10.84,0,0,1-1.8-5.32c-.11-1.78-.05-3.58-.08-5.37,0-.82-.12-1.71.93-2s2.22-1.61,3.56-.39a6.68,6.68,0,0,0,.69.46"/><path class="cls-2" d="M172.91,73.21c0,2.43,0,4.86,0,7.29-2.29,1.58-5,2.29-7.53,3.21A2,2,0,0,1,163,83a9.33,9.33,0,0,1-2.16-5.18c-.25-2.26-.1-4.56-.15-6.85,0-.68.39-1,.91-1.18a72.41,72.41,0,0,1,6.86-2.56,1.78,1.78,0,0,1,2,.63,8.85,8.85,0,0,1,2.39,5.38"/><path class="cls-2" d="M142.63,113.32v14c0,2-.55,2.64-2.53,3a3.57,3.57,0,0,1-4-2,8.58,8.58,0,0,1-.34-3.22c0-8.76,0-17.53,0-26.29A1.73,1.73,0,0,1,136.83,97c.7-.28,1.38-.64,2.09-.88,2.73-.92,3.69-.24,3.7,2.66,0,4.85,0,9.69,0,14.54m16.14,20.6c-.07-1-.23-2.35-1.15-2.67-2.53-.88-3.19-2.69-3.19-5.06,0-8.43,0-16.87,0-25.3,0-7.24-3.23-13.49-5.87-19.93-2.4-.82-2.2-2.94-2.56-4.87s-1.63-3.38-2.63-5c-1.26-2-3-2.45-5.18-1.91a62.87,62.87,0,0,0-10.4,3.73,3,3,0,0,0-1.43,3.93c.49,1,.81,2,2.39,1.67,2.3-.49,3.78.88,5,2.66,1.42,2.13,2.5,4.44,3.71,6.68.65,1.21.42,1.67-.89,2.11a114.21,114.21,0,0,0-12,4.6c-.67.31-1.48.57-1.48,1.53,0,2.74-.42,5.57,1.38,8a1,1,0,0,1-.28,1.62c-1,.69-1.14,1.68-1.14,2.83,0,6.2,0,12.4,0,18.61,0,5.52,2.52,9.78,6.81,13.05,2.28,1.75,4.85.63,5.31-2.33,1.29,1.23,2.44.67,3.65-.14s2.51-1.5,3.82-2.26a10.32,10.32,0,0,0,4.77,5.15,1.79,1.79,0,0,0,2.07,0c2.76-1.64,5.51-3.29,8.36-4.74,1-.51,1-1.18.9-1.95"/><path class="cls-2" d="M240.9,109.61a3.63,3.63,0,0,0-.37,2.06c0,5.11,0,10.23,0,15.34,0,1.11-.26,1.36-1.37,1.22-3.3-.44-4.91-2-5.32-5.29-.49-4.07-.11-8.16-.24-11.4V100.75c0-2,.64-2.67,2.74-3s3.27.46,3.81,2.18,0,3.62.9,5.26a4,4,0,0,1-.18,4.39M252,122.38c0-6.69.06-13.38,0-20.07a19.38,19.38,0,0,0-5.64-13.81,4.37,4.37,0,0,0-4.45-1.26,50.93,50.93,0,0,0-8,2.56c-2.82,1.21-6.13,1.43-8.39,3.88-.11.12-.49,0-.75,0a3.84,3.84,0,0,0-4.06,3.91v14.73c.11,4.42-.29,9.87.18,15.29a16.26,16.26,0,0,0,4,9.61c2.28,2.59,5.22,3,9.12-.48a2.16,2.16,0,0,1,2.32-.25c.39.15.78-.68,1.25-.21s-.09.7-.27,1c-3.78,5.26-7.74,10.25-15.22,9.73-.5,0-1-.15-1,1.45a6,6,0,0,0,3.12,4.7c.5.24,1,.48,1.48.75,1.46.84,2.92,1.18,4.39.06.77-.59,1-.06,1.24.54,1.45,3.27,6.08,4.07,8.35,1.35a65.92,65.92,0,0,0,11.73-20.88,7.74,7.74,0,0,0-.45-6.72,2.33,2.33,0,0,1,.05-2.45,7,7,0,0,0,1.07-3.36"/><path class="cls-2" d="M59.26,185.36c-4.33,2.38-4.63,2.23-4.63-2.53v-24a3.07,3.07,0,0,1,2.75-3.06c2.14-.22,3.77.84,4,2.71a24.26,24.26,0,0,1,.18,3.08c0,6.58-.06,13.16,0,19.73a4.08,4.08,0,0,1-2.37,4M74,159.2c.13-5.63-2.49-9.72-6.4-13.3a3.38,3.38,0,0,0-4-.68c-1.59.65-.92,1.85-1.15,3.12-2.24-1.94-3.94-.36-5.73.7-.56.33-1.14.63-1.67,1s-.83.33-1.16-.37a10.75,10.75,0,0,0-4.53-4.55,1.74,1.74,0,0,0-2.25.34,19.6,19.6,0,0,1-6.5,3.71c-1.82.55-1.84,1.56-1.62,2.54s-.1,2.18,1.23,2.64A3.38,3.38,0,0,1,42.63,158c0,1.58,0,3.16,0,4.73v43.42a11.29,11.29,0,0,1-1.13,5.37,5.34,5.34,0,0,1-4.4,3.06,23.19,23.19,0,0,0,1.84,4.29c.19.32.2,1,.84.67,2.32-1.21,5.42-1.22,6.6-4.2.45-1.11,1.13-1.18,2.19-.83a3.51,3.51,0,0,0,2.83.22c2.06-1,4.18-1.79,6.29-2.67.4-.16.81-.25.89-.8a8.66,8.66,0,0,0-.64-4.16c-.25-.74-1.14-.32-1.71-.58A2,2,0,0,1,55,204.63c-.36-3.2-.05-6.41-.22-9.61-.07-1.22.4-1.66,1.49-2A155.85,155.85,0,0,0,72,186.87,3,3,0,0,0,74,183.68c-.1-8.16-.18-16.33,0-24.48"/><path class="cls-2" d="M103.65,121.15c-1.12,2-.47,4.15-.59,6.22s-.67,2.74-2.7,3a3.43,3.43,0,0,1-3.89-2.23,8.51,8.51,0,0,1-.27-2.25c0-4.24,0-8.48,0-12.72s0-8.59,0-12.88a2,2,0,0,1,1.43-2.2c2.27-.95,5.48,0,5.44,3.47-.06,5.33,0,10.66,0,16a3.35,3.35,0,0,0,.43,2.34,1.4,1.4,0,0,1,.17,1.23m5-33.15a3,3,0,0,0-2.83-.87,165.57,165.57,0,0,0-20.74,7.63A1.82,1.82,0,0,0,84,96.67c0,10.18-.08,20.35.13,30.52a17.1,17.1,0,0,0,5.76,12.53,5.06,5.06,0,0,0,4.68,1.16,3,3,0,0,0,2.62-2.67c.22-.87.67-1.12,1.46-.37.63.6,1.25,1.35,2.4.91,4.36-1.66,8.74-3.25,12.94-5.29a2.27,2.27,0,0,0,1.41-2.43c-.06-5.22,0-10.44,0-15.67,0-4.62-.12-9.25,0-13.87.19-5.75-2.59-9.92-6.68-13.49"/><path class="cls-2" d="M147.85,193c-1.72,3.05-.58,6.36-.87,9.54a3.25,3.25,0,0,1-4.73,2.82,3.33,3.33,0,0,1-2.22-3.26c.09-2.55-.05-5.11.09-7.66.24-4.2,2.55-6.8,6.83-7.82,0,2-.09,4.06.74,6,.06.13.21.33.16.41m15.66,16.38c-.33-.91-.11-2.16-1.45-2.63-2.51-.87-3-1.63-3-4.33,0-4.3,0-8.6,0-12.9,0-4,0-8.06,0-12.08a18.26,18.26,0,0,0-4-11.6,7.71,7.71,0,0,0-4-2.91c-.94-.26-1.69-.32-2.1.8-.21.6-.6,1-1.19.35a2,2,0,0,0-2.27-.28c-3.28,1.13-6.57,2.22-9.85,3.35-2.09.72-2.44,2-1.8,4.12.42,1.41,1.08,1.58,2.33,1.55a19.31,19.31,0,0,1,6.9,1,5.11,5.11,0,0,1,3.73,4.81c.08,1-.31,1.32-1.13,1.56-1.51.44-3,.93-4.5,1.42a60,60,0,0,0-10.73,4.64,4.94,4.94,0,0,0-2.63,4.42c-.41,4.62,1.78,9.19.12,13.78a1.72,1.72,0,0,0,.07.8c.68,5.09,3.67,8.55,7.86,11.19.67.42,1.09.12,1.61-.16,3-1.62,6-3.22,9-4.85.66-.36,1-.47,1.4.45a9.66,9.66,0,0,0,4.39,4.43,1.75,1.75,0,0,0,2,0c2.77-1.6,5.55-3.2,8.39-4.67a1.71,1.71,0,0,0,.93-2.28"/><path class="cls-2" d="M205.81,184.07c0,4.48-2.34,7.54-6.86,8.89,0-5.87,0-11.63,0-17.39a1.45,1.45,0,0,1,.93-1.49c3.41-1.75,5.93-.22,5.95,3.63v6.36M218,188.69c-.55-2.07.06-4.06,0-6.09s-.07-4.13,0-6.2c.21-5.9-2.88-9.94-7.4-13.13-1.87-1.32-5-.1-5.57,2.18-1-.25-1.7-1-2.83-.62-4.74,1.71-9.48,3.4-14.08,5.48a2,2,0,0,0-1.36,2.1c.07,4.79-.15,9.59.12,14.36a34,34,0,0,1,0,6.22,56.17,56.17,0,0,0-.07,9.62,17.48,17.48,0,0,0,5.61,12.58,5,5,0,0,0,5.27,1.17c4.16-1.39,8.35-2.7,12.52-4.05,2.18-.7,2.46-1.77,1.82-4.07-.39-1.44-1.15-1.51-2.25-1.49a21.62,21.62,0,0,1-5.49-.68c-3.1-.76-5-2.92-5.18-5.52,0-.69.15-.91.79-1.1,1.56-.45,3.1-1,4.64-1.52a60.44,60.44,0,0,0,11.09-5c1.58-.95,2.84-2.22,2.31-4.22"/></g></g></svg>