<svg id="Layer_1" data-name="Layer 1" xmlns="http://www.w3.org/2000/svg" viewBox="0 0 2830 2829"><defs><style>.cls-1,.cls-14{opacity:0.5;}.cls-10,.cls-11,.cls-12,.cls-13,.cls-14,.cls-15,.cls-16,.cls-17,.cls-18,.cls-19,.cls-2,.cls-20,.cls-21,.cls-22,.cls-23,.cls-24,.cls-25,.cls-3,.cls-4,.cls-5,.cls-6,.cls-7,.cls-8,.cls-9{fill:#009fe3;isolation:isolate;}.cls-2{opacity:0.22;}.cls-3{opacity:0.96;}.cls-4{opacity:0.93;}.cls-5{opacity:0.89;}.cls-6{opacity:0.4;}.cls-7{opacity:0.7;}.cls-8{opacity:0.77;}.cls-9{opacity:0.72;}.cls-10{opacity:0.68;}.cls-11{opacity:0.64;}.cls-12{opacity:0.3;}.cls-13{opacity:0.25;}.cls-15{opacity:0.55;}.cls-16{opacity:0.57;}.cls-17{opacity:0.45;}.cls-18{opacity:0.9;}.cls-19{opacity:0.92;}.cls-20{opacity:0.97;}.cls-21{opacity:0.59;}.cls-22{opacity:0.18;}.cls-23{opacity:0.71;}.cls-24{opacity:0.75;}.cls-25{opacity:0.79;}</style></defs><title>pixel_blue</title><g class="cls-1"><rect class="cls-2" x="566" y="1697" width="566" height="566"/><rect class="cls-3" x="2264" y="2263" width="566" height="566"/><rect class="cls-4" x="1698" y="566" width="566" height="566"/><rect class="cls-5" x="1132" y="1697" width="566" height="566"/><rect class="cls-6" x="1132" width="566" height="566"/><rect class="cls-7" x="2264" y="566" width="566" height="566"/><rect class="cls-8" y="1697" width="566" height="566"/><rect class="cls-9" x="1698" y="1131" width="566" height="566"/><rect class="cls-10" x="2264" y="1697" width="566" height="566"/><rect class="cls-11" x="1698" y="2263" width="566" height="566"/><rect class="cls-12" x="1132" y="1131" width="566" height="566"/><rect class="cls-13" x="2264" width="566" height="566"/><rect class="cls-14" x="566" y="2263" width="566" height="566"/><rect class="cls-15" width="566" height="566"/><rect class="cls-16" x="2264" y="1132" width="566" height="566"/><rect class="cls-7" x="566" y="566" width="566" height="566"/><rect class="cls-17" y="1131" width="566" height="566"/><rect class="cls-18" x="566" width="566" height="566"/><rect class="cls-19" x="1698" y="1697" width="566" height="566"/><rect class="cls-20" x="566" y="1132" width="566" height="566"/><rect class="cls-21" x="1698" width="566" height="566"/><rect class="cls-22" x="1132" y="2263" width="566" height="566"/><rect class="cls-23" y="2263" width="566" height="566"/><rect class="cls-24" x="1132" y="566" width="566" height="566"/><rect class="cls-25" y="566" width="566" height="566"/></g></svg>