<svg id="Layer_1" data-name="Layer 1" xmlns="http://www.w3.org/2000/svg" xmlns:xlink="http://www.w3.org/1999/xlink" viewBox="0 0 2834.65 2834.65"><defs><style>.cls-1{fill:none;}.cls-2{clip-path:url(#clip-path);}.cls-3{clip-path:url(#clip-path-3);}.cls-4{opacity:0.46;}.cls-5{clip-path:url(#clip-path-4);}.cls-6{fill:#7c7c7b;}.cls-7{fill:#727271;}.cls-8{fill:#c8c8c8;}.cls-9{fill:#aeaeae;}.cls-10{fill:#838382;}.cls-11{fill:#e0e0e0;}.cls-12{fill:#dadada;}.cls-13{fill:#acacac;}.cls-14{fill:#9b9b9a;}.cls-15{fill:#9f9f9f;}.cls-16{fill:#616160;}.cls-17{fill:#7e7e7d;}.cls-18{fill:#c4c4c4;}.cls-19{fill:#666665;}.cls-20{fill:#5f5e5e;}.cls-21{fill:#999998;}.cls-22{fill:#8c8c8b;}.cls-23{fill:#c2c2c2;}</style><clipPath id="clip-path"><rect class="cls-1" x="0.06" y="-0.06" width="2834.53" height="2834.53"/></clipPath><clipPath id="clip-path-3"><rect class="cls-1" x="0.06" y="-0.05" width="2834.52" height="2834.21"/></clipPath><clipPath id="clip-path-4"><rect class="cls-1" x="-1323.21" y="-1012.01" width="5481.08" height="3924"/></clipPath></defs><title>1Artboard 1</title><g class="cls-2"><g class="cls-2"><g class="cls-3"><g class="cls-4"><g class="cls-5"><rect class="cls-6" x="0.06" y="2267.33" width="566.83" height="566.83"/><rect class="cls-7" x="0.06" y="1133.6" width="566.83" height="566.83"/><rect class="cls-8" x="0.06" y="1700.43" width="566.83" height="566.75"/><rect class="cls-9" x="0.06" y="566.69" width="566.83" height="566.91"/><rect class="cls-10" x="0.06" y="0.02" width="566.83" height="566.75"/><rect class="cls-11" x="1133.87" y="2267.33" width="566.83" height="566.83"/><rect class="cls-12" x="1133.87" y="1133.6" width="566.83" height="566.83"/><rect class="cls-13" x="1133.87" y="1700.43" width="566.83" height="566.75"/><rect class="cls-14" x="1133.87" y="566.77" width="566.83" height="566.83"/><rect class="cls-15" x="1133.87" y="-0.05" width="566.83" height="566.83"/><rect class="cls-13" x="566.89" y="2267.33" width="566.83" height="566.83"/><rect class="cls-11" x="566.89" y="1133.6" width="566.83" height="566.83"/><rect class="cls-16" x="566.89" y="1700.43" width="566.83" height="566.75"/><rect class="cls-17" x="566.89" y="566.77" width="566.83" height="566.83"/><rect class="cls-18" x="566.89" y="-0.05" width="566.83" height="566.83"/><rect class="cls-19" x="1700.77" y="2267.33" width="566.83" height="566.83"/><rect class="cls-8" x="1700.77" y="1133.6" width="566.83" height="566.83"/><rect class="cls-12" x="1700.77" y="1700.43" width="566.83" height="566.75"/><rect class="cls-20" x="1700.77" y="566.77" width="566.83" height="566.83"/><rect class="cls-11" x="1700.77" y="-0.05" width="566.83" height="566.83"/><rect class="cls-21" x="2267.76" y="2267.33" width="566.83" height="566.83"/><rect class="cls-22" x="2267.76" y="1133.6" width="566.83" height="566.83"/><rect class="cls-23" x="2267.76" y="1700.43" width="566.83" height="566.75"/><rect class="cls-8" x="2267.76" y="566.77" width="566.83" height="566.83"/><rect class="cls-7" x="2267.76" y="-0.05" width="566.83" height="566.83"/></g></g></g></g></g></svg>