<?xml version="1.0" encoding="utf-8"?>
<!-- Generator: Adobe Illustrator 24.0.1, SVG Export Plug-In . SVG Version: 6.00 Build 0)  -->
<svg version="1.1" id="Layer_1" xmlns="http://www.w3.org/2000/svg" xmlns:xlink="http://www.w3.org/1999/xlink" x="0px" y="0px"
	 viewBox="0 0 563.4 512" style="enable-background:new 0 0 563.4 512;" xml:space="preserve">
<style type="text/css">
	.st0{fill:#FF9900;}
	.st1{opacity:0.4;fill:#00AEEF;enable-background:new    ;}
	.st2{opacity:0.4;fill:#FF9900;enable-background:new    ;}
</style>
<g>
	<path class="st0" d="M304,128h32c8.8,0,16-7.2,16-16V16c0-8.8-7.2-16-16-16h-32c-8.8,0-16,7.2-16,16v96
		C288,120.8,295.2,128,304,128z"/>
	<path class="st0" d="M426.7,483.4c-15.8,0-28.6-12.8-28.6-28.6v-2.2c-0.1-0.6-0.1-1.1-0.1-1.7v-39.4h-42.9c-16,0-29-13-29-29v-1.8
		c-0.1-0.6-0.1-1.1-0.1-1.7v-40c0-0.6,0.1-1.2,0.1-1.7v-13.2c0-16.1,13-29.1,29.1-29.1h17.2h0.1H398v-28c0-0.6,0.1-1.2,0.1-1.7v-13
		c0-16.2,13.1-29.3,29.3-29.3h17h0.1h3.5v-31H0v272c0,26.5,21.5,48,48,48h352c19.6,0,36.5-11.8,43.9-28.6H426.7z"/>
	<path class="st0" d="M112,128h32c8.8,0,16-7.2,16-16V16c0-8.8-7.2-16-16-16h-32c-8.8,0-16,7.2-16,16v96C96,120.8,103.2,128,112,128
		z"/>
</g>
<path class="st1" d="M550.6,320.7h-60v-60c0-6.6-5.4-12-12-12h-40c-6.6,0-12,5.4-12,12v60h-60c-6.6,0-12,5.4-12,12v40
	c0,6.6,5.4,12,12,12h60v60c0,6.6,5.4,12,12,12h40c6.6,0,12-5.4,12-12v-60h60c6.6,0,12-5.4,12-12v-40
	C562.6,326,557.2,320.7,550.6,320.7z"/>
<path class="st2" d="M400,64.9h-48v48c0,8.8-7.2,16-16,16h-32c-8.8,0-16-7.2-16-16v-48H160v48c0,8.8-7.2,16-16,16h-32
	c-8.8,0-16-7.2-16-16v-48H48c-26.5,0-48,21.5-48,48v80h448v-80C448,86.4,426.6,64.9,400,64.9z"/>
</svg>
