<?xml version="1.0" encoding="utf-8"?>
<!-- Generator: Adobe Illustrator 24.0.1, SVG Export Plug-In . SVG Version: 6.00 Build 0)  -->
<svg version="1.1" id="Layer_1" xmlns="http://www.w3.org/2000/svg" xmlns:xlink="http://www.w3.org/1999/xlink" x="0px" y="0px"
	 viewBox="0 0 501.4 512" style="enable-background:new 0 0 501.4 512;" xml:space="preserve">
<style type="text/css">
	.st0{fill:#FF9900;}
	.st1{opacity:0.4;fill:#00AEEF;enable-background:new    ;}
	.st2{opacity:0.4;fill:#FF9900;enable-background:new    ;}
</style>
<path class="st0" d="M365.4,495.6c-17,0-30.8-13.8-30.8-30.8l0,0c-0.1-0.6-0.1-1.1-0.1-1.7v-39.4h-41c-17,0-30.8-13.8-30.8-30.8l0,0
	c-0.1-0.6-0.1-1.1-0.1-1.7v-40c0-0.6,0.1-1.2,0.1-1.7V338c0-17,13.8-30.8,30.8-30.8H309h0.1h25.5v-28c0-0.6,0.1-1.2,0.1-1.7v-11.6
	c0-16.9,13.7-30.7,30.7-30.7H381h0.1h3.1V128H272c-8.8,0-16-7.2-16-16V0H24C10.8,0,0,10.7,0,23.9l0,0V488c0,13.2,10.7,24,23.9,24
	l0,0H360c10.6,0,19.6-6.9,22.8-16.4H365.4z"/>
<path class="st1" d="M488.7,333.6h-60v-60c0-6.6-5.4-12-12-12h-40c-6.6,0-12,5.4-12,12v60h-60c-6.6,0-12,5.4-12,12v40
	c0,6.6,5.4,12,12,12h60v60c0,6.6,5.4,12,12,12h40c6.6,0,12-5.4,12-12v-60h60c6.6,0,12-5.4,12-12v-40
	C500.7,338.9,495.4,333.6,488.7,333.6z"/>
<path class="st2" d="M376.9,105.9L279,7.9c-4.5-4.5-10.6-7-17-7h-6.1v112c0,8.8,7.2,16,16,16h112v-6.1
	C383.9,116.4,381.4,110.3,376.9,105.9z"/>
</svg>
