<svg xmlns="http://www.w3.org/2000/svg" viewBox="0 0 206.01 320.05"><defs><style>.cls-1,.cls-2{fill:#00aeef;}.cls-1{opacity:0.4;isolation:isolate;}</style></defs><title>Asset 1</title><g id="Layer_2" data-name="Layer 2"><g id="Layer_1-2" data-name="Layer 1"><path class="cls-1" d="M198.83,256.44a24,24,0,0,1,0,33.86L176.32,313l-.18.18a23.76,23.76,0,0,1-33.6-.18L46.39,216.5,102.86,160Z"/><path class="cls-2" d="M142.81,6.87l-.17.18L7.11,143a24,24,0,0,0-.17,33.93L7,177l39.39,39.51L199,63.66a23.92,23.92,0,0,0,0-33.83h0L176.46,7.08a23.77,23.77,0,0,0-33.62-.23h0Z"/></g></g></svg>