<?xml version="1.0" encoding="utf-8"?>
<!-- Generator: Adobe Illustrator 23.0.4, SVG Export Plug-In . SVG Version: 6.00 Build 0)  -->
<svg version="1.1" id="Layer_1" xmlns="http://www.w3.org/2000/svg" xmlns:xlink="http://www.w3.org/1999/xlink" x="0px" y="0px"
	 viewBox="0 0 448 512" style="enable-background:new 0 0 448 512;" xml:space="preserve">
<style type="text/css">
	.st0{opacity:0.4;fill:#00AEEF;enable-background:new    ;}
	.st1{fill:#00AEEF;}
</style>
<path class="st0" d="M0,192v272c0,26.5,21.5,48,48,48l0,0h352c26.5,0,48-21.5,48-48l0,0V192H0z M128,436c0,6.6-5.4,12-12,12H76
	c-6.6,0-12-5.4-12-12v-40c0-6.6,5.4-12,12-12h40c6.6,0,12,5.4,12,12V436z M128,308c0,6.6-5.4,12-12,12H76c-6.6,0-12-5.4-12-12v-40
	c0-6.6,5.4-12,12-12h40c6.6,0,12,5.4,12,12V308z M256,436c0,6.6-5.4,12-12,12h-40c-6.6,0-12-5.4-12-12v-40c0-6.6,5.4-12,12-12h40
	c6.6,0,12,5.4,12,12V436z M256,308c0,6.6-5.4,12-12,12h-40c-6.6,0-12-5.4-12-12v-40c0-6.6,5.4-12,12-12h40c6.6,0,12,5.4,12,12V308z
	 M384,436c0,6.6-5.4,12-12,12h-40c-6.6,0-12-5.4-12-12v-40c0-6.6,5.4-12,12-12h40c6.6,0,12,5.4,12,12V436z M384,308
	c0,6.6-5.4,12-12,12h-40c-6.6,0-12-5.4-12-12v-40c0-6.6,5.4-12,12-12h40c6.6,0,12,5.4,12,12V308z M304,128h32c8.8,0,16-7.2,16-16V16
	c0-8.8-7.2-16-16-16h-32c-8.8,0-16,7.2-16,16v96C288,120.8,295.2,128,304,128z M112,128h32c8.8,0,16-7.2,16-16V16
	c0-8.8-7.2-16-16-16h-32c-8.8,0-16,7.2-16,16v96C96,120.8,103.2,128,112,128z"/>
<path class="st1" d="M448,112v80H0v-80c0-26.5,21.5-48,48-48h48v48c0,8.8,7.2,16,16,16h32c8.8,0,16-7.2,16-16V64h128v48
	c0,8.8,7.2,16,16,16h32c8.8,0,16-7.2,16-16V64h48C426.5,64,448,85.5,448,112z"/>
</svg>
