<?xml version="1.0" encoding="utf-8"?>
<!-- Generator: Adobe Illustrator 23.0.4, SVG Export Plug-In . SVG Version: 6.00 Build 0)  -->
<svg version="1.1" id="Layer_1" xmlns="http://www.w3.org/2000/svg" xmlns:xlink="http://www.w3.org/1999/xlink" x="0px" y="0px"
	 viewBox="0 0 576 512" style="enable-background:new 0 0 576 512;" xml:space="preserve">
<style type="text/css">
	.st0{opacity:0.4;fill:#00AEEF;enable-background:new    ;}
	.st1{fill:#00AEEF;}
</style>
<path class="st0" d="M352,287.9H162.3L79.5,350c-4.3,3.2-10.4,2.3-13.6-2c-1.3-1.7-1.9-3.7-1.9-5.8V288c-35.3,0-64-28.7-64-64V64
	C0,28.7,28.7,0,64,0h288c35.3,0,64,28.7,64,64v160C416,259.3,387.4,287.9,352,287.9C352.1,287.9,352,287.9,352,287.9z"/>
<path class="st1" d="M576,224v160c0,35.3-28.7,64-64,64h-32v54.3c0,5.4-4.3,9.7-9.7,9.7c-2.1,0-4.1-0.7-5.8-1.9L381.7,448H256
	c-35.3,0-64-28.7-64-64v-64h160c53-0.1,95.9-43,96-96v-64h64C547.3,160,576,188.7,576,224z"/>
</svg>
