<?xml version="1.0" encoding="utf-8"?>
<!-- Generator: Adobe Illustrator 24.0.1, SVG Export Plug-In . SVG Version: 6.00 Build 0)  -->
<svg version="1.1" id="Layer_1" xmlns="http://www.w3.org/2000/svg" xmlns:xlink="http://www.w3.org/1999/xlink" x="0px" y="0px"
	 viewBox="0 0 448 512" style="enable-background:new 0 0 448 512;" xml:space="preserve">
<style type="text/css">
	.st0{opacity:0.4;fill:#FF0000;enable-background:new    ;}
	.st1{fill:#FF0000;}
</style>
<path class="st0" d="M32,464c0,26.5,21.5,48,48,48l0,0h288c26.5,0,48-21.5,48-48l0,0V96H32V464z M304,176c0-8.8,7.2-16,16-16
	s16,7.2,16,16v224c0,8.8-7.2,16-16,16s-16-7.2-16-16V176z M208,176c0-8.8,7.2-16,16-16s16,7.2,16,16v224c0,8.8-7.2,16-16,16
	s-16-7.2-16-16V176z M112,176c0-8.8,7.2-16,16-16s16,7.2,16,16v224c0,8.8-7.2,16-16,16s-16-7.2-16-16V176z"/>
<path class="st1" d="M432,32H312l-9.4-18.7C298.5,5.1,290.2,0,281.1,0H166.8c-9.1,0-17.4,5.1-21.4,13.3L136,32H16
	C7.2,32,0,39.2,0,48v32c0,8.8,7.2,16,16,16h416c8.8,0,16-7.2,16-16V48C448,39.2,440.8,32,432,32z M128,160c-8.8,0-16,7.2-16,16v224
	c0,8.8,7.2,16,16,16s16-7.2,16-16V176C144,167.2,136.8,160,128,160z M224,160c-8.8,0-16,7.2-16,16v224c0,8.8,7.2,16,16,16
	s16-7.2,16-16V176C240,167.2,232.8,160,224,160z M320,160c-8.8,0-16,7.2-16,16v224c0,8.8,7.2,16,16,16s16-7.2,16-16V176
	C336,167.2,328.8,160,320,160z"/>
</svg>
