<?xml version="1.0" encoding="utf-8"?>
<!-- Generator: Adobe Illustrator 24.0.1, SVG Export Plug-In . SVG Version: 6.00 Build 0)  -->
<svg version="1.1" id="Layer_1" xmlns="http://www.w3.org/2000/svg" xmlns:xlink="http://www.w3.org/1999/xlink" x="0px" y="0px"
	 viewBox="0 0 640 512" style="enable-background:new 0 0 640 512;" xml:space="preserve">
<style type="text/css">
	.st0{opacity:0.4;fill:#00AEEF;enable-background:new    ;}
	.st1{fill:#FF9900;}
</style>
<path class="st0" d="M640,224v32c0,8.8-7.2,16-16,16H432c-8.8,0-16-7.2-16-16v-32c0-8.8,7.2-16,16-16h192
	C632.8,208,640,215.2,640,224z"/>
<path class="st1" d="M313.6,288h-16.7c-46.3,21.3-99.5,21.3-145.8,0h-16.7C60.2,288,0,348.2,0,422.4V464c0,26.5,21.5,48,48,48l0,0
	h352c26.5,0,48-21.5,48-48l0,0v-41.6C448,348.2,387.8,288,313.6,288z M224,256c70.7,0,128-57.3,128-128S294.7,0,224,0
	S96,57.3,96,128S153.3,256,224,256z"/>
</svg>
