<?xml version="1.0" encoding="utf-8"?>
<!-- Generator: Adobe Illustrator 24.0.1, SVG Export Plug-In . SVG Version: 6.00 Build 0)  -->
<svg version="1.1" id="Layer_1" xmlns="http://www.w3.org/2000/svg" xmlns:xlink="http://www.w3.org/1999/xlink" x="0px" y="0px"
	 viewBox="0 0 576 512" style="enable-background:new 0 0 576 512;" xml:space="preserve">
<style type="text/css">
	.st0{fill:#FF9900;}
	.st1{opacity:0.4;fill:#FF9900;enable-background:new    ;}
	.st2{opacity:0.4;fill:#00AEEF;enable-background:new    ;}
</style>
<path class="st0" d="M492.8,173.3c3.8,3.8,3.8,10,0,13.8L274.4,405.5l-92.8,10.3c-10.7,1.2-20.3-6.5-21.5-17.2
	c-0.2-1.4-0.2-2.9,0-4.3l10.3-92.8L388.8,83.1c3.8-3.8,10-3.8,13.8,0L492.8,173.3z"/>
<path class="st1" d="M564,60.8L515.2,12C499.9-3.2,475.3-3.2,460,12l-35.4,35.4c-3.8,3.8-3.8,10,0,13.8l90.2,90.2
	c3.8,3.8,10,3.8,13.8,0L564,116C579.2,100.7,579.2,76.1,564,60.8z"/>
<path class="st2" d="M428.5,296.7l-40,40c-2.2,2.3-3.5,5.3-3.5,8.5V447H65V127h229.8c3.2,0,6.2-1.3,8.5-3.5l40-40
	c4.7-4.7,4.7-12.3,0-17c-2.3-2.3-5.3-3.5-8.5-3.5H49C22.5,63,1,84.5,1,111v352c0,26.5,21.5,48,48,48h352c26.5,0,48-21.5,48-48V305.2
	c0-6.6-5.3-12-12-12C433.8,293.2,430.8,294.4,428.5,296.7z"/>
</svg>
