<?xml version="1.0" encoding="utf-8"?>
<!-- Generator: Adobe Illustrator 23.0.4, SVG Export Plug-In . SVG Version: 6.00 Build 0)  -->
<svg version="1.1" id="Layer_1" xmlns="http://www.w3.org/2000/svg" xmlns:xlink="http://www.w3.org/1999/xlink" x="0px" y="0px"
	 viewBox="0 0 576 512" style="enable-background:new 0 0 576 512;" xml:space="preserve">
<style type="text/css">
	.st0{opacity:0.4;fill:#00AEEF;enable-background:new    ;}
	.st1{fill:#00AEEF;}
</style>
<path class="st0" d="M336,463.6v-95.6c0-8.8-7.2-16-16-16h-64c-8.8,0-16,7.2-16,16v95.7c0,8.8-7.1,16-15.9,16L112,479.9
	c-8.8,0-16-7.2-16-16V300.1l184.4-151.8c4.5-3.6,10.8-3.6,15.3,0L480,299.9v164c0,8.8-7.2,16-16,16l-112-0.3
	C343.2,479.6,336,472.5,336,463.6C336,463.6,336,463.6,336,463.6L336,463.6z"/>
<path class="st1" d="M530.9,300.9L295.7,107.2c-4.5-3.6-10.8-3.6-15.3,0L45.2,300.9c-5.1,4.2-12.7,3.5-16.9-1.6l-25.5-31
	c-4.2-5.1-3.5-12.7,1.6-16.9L257.5,42.9c17.7-14.6,43.3-14.6,61,0l253.1,208.5c5.1,4.2,5.9,11.8,1.7,16.9c0,0,0,0,0,0l-25.5,31
	C543.6,304.4,536,305.1,530.9,300.9z"/>
</svg>
