<?xml version="1.0" encoding="utf-8"?>
<!-- Generator: Adobe Illustrator 23.0.4, SVG Export Plug-In . SVG Version: 6.00 Build 0)  -->
<svg version="1.1" id="Layer_1" xmlns="http://www.w3.org/2000/svg" xmlns:xlink="http://www.w3.org/1999/xlink" x="0px" y="0px"
	 viewBox="0 0 640 512" style="enable-background:new 0 0 640 512;" xml:space="preserve">
<style type="text/css">
	.st0{opacity:0.4;fill:#00AEEF;enable-background:new    ;}
	.st1{fill:#FF9900;}
</style>
<path class="st0" d="M636.6,159.6c4.5,4.7,4.5,12.2-0.1,16.8L495.2,316.6c-4.7,4.6-12.2,4.6-16.8-0.1c0,0,0,0,0,0l-81.7-82.3
	c-4.6-4.7-4.6-12.2,0.1-16.8c0,0,0,0,0,0l28.1-27.9c4.7-4.6,12.2-4.6,16.8,0.1c0,0,0,0,0,0l45.5,45.8l104.8-104
	c4.7-4.6,12.2-4.6,16.8,0.1c0,0,0,0,0,0L636.6,159.6z"/>
<path class="st1" d="M224,256c70.7,0,128-57.3,128-128S294.7,0,224,0S96,57.3,96,128S153.3,256,224,256z M313.6,288h-16.7
	c-46.3,21.3-99.5,21.3-145.8,0h-16.7C60.2,288,0,348.2,0,422.4V464c0,26.5,21.5,48,48,48l0,0h352c26.5,0,48-21.5,48-48l0,0v-41.6
	C448,348.2,387.8,288,313.6,288z"/>
</svg>
