<?xml version="1.0" encoding="utf-8"?>
<!-- Generator: Adobe Illustrator 24.0.1, SVG Export Plug-In . SVG Version: 6.00 Build 0)  -->
<svg version="1.1" id="Layer_1" xmlns="http://www.w3.org/2000/svg" xmlns:xlink="http://www.w3.org/1999/xlink" x="0px" y="0px"
	 viewBox="0 0 448 512" style="enable-background:new 0 0 448 512;" xml:space="preserve">
<style type="text/css">
	.st0{opacity:0.4;fill:#00AEEF;enable-background:new    ;}
	.st1{fill:#00AEEF;}
</style>
<path class="st0" d="M176,448c0,17.7,14.3,32,32,32h32c17.7,0,32-14.3,32-32V304h-96V448z M240,32h-32c-17.7,0-32,14.3-32,32v144h96
	V64C272,46.3,257.7,32,240,32z"/>
<path class="st1" d="M448,240v32c0,17.7-14.3,32-32,32H32c-17.7,0-32-14.3-32-32v-32c0-17.7,14.3-32,32-32h384
	C433.7,208,448,222.3,448,240z"/>
</svg>
