<?xml version="1.0" encoding="utf-8"?>
<!-- Generator: Adobe Illustrator 24.0.1, SVG Export Plug-In . SVG Version: 6.00 Build 0)  -->
<svg version="1.1" id="Layer_1" xmlns="http://www.w3.org/2000/svg" xmlns:xlink="http://www.w3.org/1999/xlink" x="0px" y="0px"
	 viewBox="0 0 512 512" style="enable-background:new 0 0 512 512;" xml:space="preserve">
<style type="text/css">
	.st0{opacity:0.4;fill:#EF0000;enable-background:new    ;}
	.st1{fill:#EF0000;}
</style>
<path class="st0" d="M64,160v192c0,17.7,14.3,32,32,32h84c6.6,0,12,5.4,12,12v40c0,6.6-5.4,12-12,12H96c-53,0-96-43-96-96V160
	c0-53,43-96,96-96h84c6.6,0,12,5.4,12,12v40c0,6.6-5.4,12-12,12l0,0H96C78.3,128,64,142.3,64,160z"/>
<path class="st1" d="M288,424v-96H152c-13.2,0-24-10.7-24-23.9c0,0,0-0.1,0-0.1v-96c0-13.2,10.7-24,23.9-24c0,0,0.1,0,0.1,0h136V88
	c0-21.4,25.9-32,41-17l168,168c9.3,9.4,9.3,24.6,0,34L329,441C314,456,288,445.5,288,424z"/>
</svg>
