<?xml version="1.0" standalone="no"?>
<!DOCTYPE svg PUBLIC "-//W3C//DTD SVG 20010904//EN"
 "http://www.w3.org/TR/2001/REC-SVG-20010904/DTD/svg10.dtd">
<svg version="1.0" xmlns="http://www.w3.org/2000/svg"
 width="700.000000pt" height="700.000000pt" viewBox="0 0 700.000000 700.000000"
 preserveAspectRatio="xMidYMid meet">
<metadata>
Created by potrace 1.11, written by Peter Selinger 2001-2013
</metadata>
<g transform="translate(0.000000,700.000000) scale(0.100000,-0.100000)"
fill="#000000" stroke="none">
<path d="M0 3500 l0 -3500 3500 0 3500 0 0 3500 0 3500 -3500 0 -3500 0 0
-3500z m4037 1858 c44 -49 53 -82 53 -197 l0 -109 -77 -33 c-106 -44 -140 -44
-170 0 -34 50 -44 100 -41 202 l3 92 85 33 c101 40 120 41 147 12z m-2388 -68
c17 -41 19 -54 10 -72 -9 -17 -8 -23 4 -30 9 -4 29 -53 46 -107 33 -106 43
-120 94 -130 25 -5 34 -14 43 -41 7 -19 8 -41 4 -49 -8 -15 -271 -141 -295
-141 -24 0 -52 56 -96 192 -46 143 -58 164 -83 155 -16 -6 -17 -46 -15 -547 2
-498 1 -542 -15 -559 -19 -21 -20 -20 46 -35 16 -4 48 -20 72 -38 48 -33 103
-46 203 -47 71 -1 83 -12 83 -79 l0 -39 -153 -57 c-185 -69 -213 -74 -272 -52
-59 23 -153 116 -193 193 -57 108 -62 155 -62 584 0 272 3 388 11 396 9 9 9
20 0 44 -15 44 -14 267 2 299 9 19 41 37 132 73 137 56 372 137 396 137 10 0
25 -19 38 -50z m1696 31 c40 -25 92 -114 105 -181 7 -38 19 -62 38 -80 17 -15
44 -67 71 -135 87 -219 84 -193 90 -635 3 -217 10 -401 14 -408 5 -7 27 -24
48 -38 38 -23 40 -28 37 -67 l-3 -41 -119 -67 c-71 -40 -125 -65 -135 -62 -30
11 -82 55 -104 89 -12 18 -25 34 -29 34 -4 0 -34 -16 -67 -36 -43 -26 -68 -34
-84 -30 -19 4 -26 0 -35 -19 -17 -37 -54 -51 -92 -35 -47 19 -135 121 -162
187 -22 56 -23 68 -23 344 0 268 1 288 19 308 19 20 19 22 0 62 -12 28 -18 66
-19 117 l0 77 40 19 c22 10 99 41 170 68 72 27 134 53 138 57 9 9 -38 109 -86
182 -37 57 -72 79 -126 79 -30 0 -43 5 -51 19 -13 25 -13 67 0 90 14 28 251
118 315 120 11 1 34 -7 50 -18z m-756 -485 c35 -37 73 -90 89 -123 l27 -58 3
-412 c2 -278 0 -419 -8 -432 -12 -22 -48 -40 -230 -112 l-124 -49 -28 20 c-15
11 -30 20 -32 20 -3 0 -12 -15 -20 -34 -19 -44 -71 -64 -127 -47 -76 23 -161
155 -179 278 -15 105 -13 795 3 816 25 33 466 196 533 197 25 0 42 -12 93 -64z
m1420 49 c44 -22 98 -91 110 -140 17 -68 14 -246 -4 -273 -14 -20 -14 -26 0
-67 12 -36 15 -95 15 -281 0 -142 4 -243 10 -255 6 -10 24 -26 39 -34 30 -15
48 -59 37 -92 -5 -15 -163 -113 -217 -135 -22 -9 -90 35 -123 81 -42 56 -46
107 -46 533 l0 401 -40 37 c-34 31 -40 43 -40 77 l0 41 108 61 c59 33 111 61
115 61 4 0 21 -7 36 -15z m517 -16 c17 -10 39 -34 50 -54 10 -19 24 -35 31
-35 6 0 39 16 72 35 137 80 206 94 244 49 12 -14 40 -44 62 -67 75 -79 79
-108 85 -538 5 -410 4 -398 65 -423 26 -11 33 -21 38 -50 8 -52 2 -62 -57 -85
-28 -12 -78 -39 -111 -61 -33 -22 -69 -40 -81 -40 -28 0 -100 64 -123 109 -17
32 -19 76 -26 431 -8 434 -11 458 -66 480 -16 7 -43 10 -64 6 l-35 -7 0 -371
0 -371 40 -37 c42 -39 61 -90 41 -114 -6 -7 -33 -21 -59 -31 -26 -10 -70 -35
-99 -56 -29 -22 -61 -39 -71 -39 -26 0 -99 65 -122 109 -23 47 -30 211 -10
253 11 23 11 36 -3 79 -14 42 -17 96 -17 301 0 154 -4 257 -10 269 -6 11 -29
31 -51 45 -37 23 -40 28 -37 66 2 24 9 44 18 49 8 4 40 19 70 33 30 14 77 41
104 61 52 38 65 38 122 4z m1310 18 c33 -18 90 -91 117 -150 41 -87 47 -141
47 -438 0 -237 -2 -285 -16 -311 -16 -31 -16 -38 7 -134 12 -48 10 -57 -15
-130 -58 -162 -182 -377 -271 -471 -36 -37 -47 -43 -84 -43 -54 0 -96 22 -116
60 -15 30 -16 30 -47 14 -28 -15 -34 -14 -75 1 -59 23 -111 69 -121 109 -15
55 -7 63 66 68 76 6 133 31 193 86 45 40 129 145 129 160 0 20 -70 4 -116 -27
-68 -45 -120 -43 -174 5 -22 20 -54 65 -71 99 -42 85 -47 165 -41 578 5 329 5
331 28 354 13 13 35 23 49 23 14 0 42 11 63 25 50 33 347 135 392 135 19 -1
45 -6 56 -13z m-3760 -1352 c39 -39 52 -82 56 -187 2 -87 1 -100 -17 -116 -21
-20 -157 -72 -187 -72 -21 0 -61 52 -77 99 -6 19 -11 78 -11 132 l0 99 37 15
c29 12 44 13 61 6 30 -14 32 -14 32 3 0 18 38 46 63 46 10 0 29 -11 43 -25z
m-947 -39 c28 -15 80 -69 99 -102 8 -15 16 -13 77 21 60 34 71 37 96 28 26
-10 29 -9 29 8 0 29 36 59 71 59 42 0 127 -87 171 -177 l33 -68 3 -361 c3
-335 2 -362 -15 -382 -18 -21 -191 -96 -338 -148 -44 -15 -86 -32 -92 -37 -9
-7 -13 -48 -13 -141 0 -142 9 -172 52 -178 15 -2 24 -13 30 -37 19 -70 12 -79
-92 -123 -85 -35 -99 -39 -133 -30 -27 7 -41 6 -48 -2 -5 -6 -20 -25 -34 -42
-15 -20 -46 -39 -85 -53 -34 -13 -63 -21 -65 -19 -2 2 -15 28 -29 57 l-25 54
42 21 c30 15 48 34 64 66 l23 45 0 636 c0 350 -2 643 -6 652 -3 9 -21 25 -40
36 -31 18 -34 25 -34 65 l0 45 73 35 c39 18 87 45 106 60 41 30 43 31 80 12z
m3092 -202 c8 -10 15 -56 19 -128 l5 -111 46 -3 c42 -3 47 -6 52 -30 6 -30 -5
-111 -17 -130 -4 -7 -25 -12 -47 -12 l-39 0 0 -402 c0 -429 2 -441 49 -464 30
-16 41 -32 41 -67 0 -33 -42 -77 -75 -77 -12 0 -31 -11 -44 -23 -12 -13 -44
-34 -71 -47 l-50 -24 -43 30 c-27 19 -52 48 -70 84 -26 51 -28 61 -23 140 3
47 5 96 5 110 0 14 -4 185 -7 380 l-7 354 -31 7 c-52 10 -57 17 -51 71 8 63 9
65 72 93 75 33 139 95 179 175 19 38 37 73 41 79 10 16 51 13 66 -5z m-2158
-244 c23 -17 53 -47 67 -67 l25 -36 5 -444 5 -444 49 -44 c42 -39 47 -48 41
-72 -9 -38 -15 -43 -129 -108 -110 -64 -112 -64 -181 -3 -71 62 -71 63 -74
532 -2 231 -7 430 -12 442 -4 13 -22 30 -38 39 -17 8 -34 27 -37 40 -13 53 1
70 113 134 60 33 112 61 116 61 5 0 27 -14 50 -30z m505 -6 c17 -14 39 -38 47
-55 9 -16 17 -29 20 -29 2 0 44 26 92 57 114 74 152 78 213 18 23 -22 57 -72
77 -112 29 -59 36 -85 40 -156 6 -86 6 -86 -26 -117 -28 -28 -35 -31 -71 -25
-36 6 -41 4 -49 -18 -9 -24 -65 -77 -82 -77 -15 0 -48 38 -53 62 -3 13 -8 53
-11 90 -6 59 -10 71 -37 93 -16 14 -40 25 -54 25 l-24 0 0 -372 0 -371 39 -36
c38 -35 58 -85 43 -107 -4 -6 -56 -39 -117 -74 l-109 -62 -34 18 c-46 25 -96
85 -110 133 -19 61 -16 429 3 486 13 37 14 49 3 67 -8 14 -15 78 -18 164 -5
153 -11 169 -69 197 -32 15 -51 81 -30 102 8 8 64 41 124 74 120 66 136 68
193 25z m1048 4 c39 -27 87 -97 117 -169 21 -52 22 -71 27 -437 l5 -384 24
-19 c13 -10 29 -19 36 -19 20 0 34 -22 40 -65 l7 -40 -122 -68 c-90 -51 -128
-67 -145 -63 -26 7 -78 54 -110 100 l-21 29 -130 -69 -131 -69 -55 42 c-99 75
-157 194 -141 290 4 26 5 80 2 118 -4 39 -7 105 -8 147 -1 69 2 80 25 107 32
39 141 92 299 146 l120 41 3 36 c6 75 -65 119 -218 134 -53 5 -73 11 -80 25
-14 26 -12 75 4 91 8 8 77 36 154 62 121 41 144 46 163 35 20 -10 25 -9 38 10
17 26 47 22 97 -11z m1389 13 c53 -32 117 -104 144 -161 25 -53 26 -62 29
-276 l2 -220 -27 -26 c-45 -42 -216 -122 -370 -172 -46 -15 -53 -21 -53 -44 0
-77 79 -130 207 -139 44 -4 80 -12 89 -20 17 -18 19 -87 2 -101 -20 -15 -353
-122 -383 -122 -41 0 -83 29 -131 93 -84 112 -89 149 -86 689 l2 318 43 21
c23 12 107 46 187 76 111 41 153 53 178 48 24 -4 34 -2 38 10 8 19 52 44 79
45 11 0 34 -8 50 -19z m897 -80 c33 -54 71 -103 88 -114 30 -19 45 -50 38 -84
-2 -12 -46 -40 -127 -81 -148 -75 -149 -75 -201 46 -39 91 -52 107 -74 99 -14
-6 -16 -32 -16 -182 0 -96 4 -175 9 -175 4 0 67 25 138 55 72 30 144 55 160
55 40 0 70 -30 107 -109 l31 -66 0 -224 0 -224 -70 -39 c-114 -61 -321 -141
-355 -136 -23 4 -33 -1 -45 -19 -19 -28 -65 -31 -87 -5 -9 9 -36 58 -61 108
-33 65 -58 101 -87 124 -36 29 -41 37 -38 69 3 35 5 37 125 98 77 40 128 61
139 56 9 -3 43 -62 75 -130 32 -68 64 -123 72 -123 7 0 21 6 30 13 16 11 17
31 15 187 -3 153 -5 175 -19 178 -9 2 -71 -20 -138 -47 -66 -28 -133 -51 -149
-51 -50 0 -92 56 -127 170 -13 41 -18 100 -20 228 -3 207 -7 199 132 270 164
82 227 106 252 93 17 -9 21 -9 21 2 0 17 29 43 55 50 56 14 68 5 127 -92z"/>
<path d="M3243 4670 l-43 -19 0 -361 c0 -379 3 -408 45 -424 29 -11 70 -7 93
10 l22 15 0 388 c0 288 -3 390 -12 399 -17 17 -57 14 -105 -8z"/>
<path d="M2268 4629 c-17 -9 -18 -37 -18 -365 l0 -355 25 -24 c28 -29 80 -33
111 -11 15 12 20 32 26 108 4 51 7 100 7 108 -1 8 -4 126 -7 261 -6 223 -9
249 -26 268 -21 23 -87 29 -118 10z"/>
<path d="M5593 4635 l-33 -14 0 -295 c0 -344 4 -365 74 -397 23 -10 51 -19 64
-19 l22 0 0 210 c0 171 3 217 16 251 16 38 16 45 0 93 -9 29 -16 67 -16 84 0
43 -18 78 -47 91 -30 14 -40 13 -80 -4z"/>
<path d="M1273 3226 l-28 -24 -3 -304 c-3 -326 0 -386 25 -395 21 -8 99 33
124 65 18 23 19 43 19 318 0 310 -3 333 -47 353 -36 17 -59 13 -90 -13z"/>
<path d="M3418 2486 c-36 -16 -76 -54 -96 -91 -21 -39 -30 -271 -12 -304 16
-31 72 -53 102 -42 45 17 53 38 60 165 10 152 9 139 2 219 -7 70 -10 74 -56
53z"/>
<path d="M4750 2807 l-25 -13 -3 -222 -2 -222 37 15 c88 37 122 98 130 229 7
114 -2 176 -28 205 -23 24 -70 28 -109 8z"/>
</g>
</svg>
